<mxfile host="Electron" modified="2023-05-02T06:05:28.170Z" agent="Mozilla/5.0 (Macintosh; Intel Mac OS X 10_15_7) AppleWebKit/537.36 (KHTML, like Gecko) draw.io/21.2.1 Chrome/112.0.5615.87 Electron/24.1.2 Safari/537.36" etag="GVL4t9PY82wjbYxC1Sag" version="21.2.1" type="device" pages="2">
  <diagram name="Online" id="PInLg-fRG8JOVK7NSta_">
    <mxGraphModel dx="1070" dy="1142" grid="1" gridSize="10" guides="1" tooltips="1" connect="1" arrows="1" fold="1" page="1" pageScale="1" pageWidth="850" pageHeight="1100" math="0" shadow="0">
      <root>
        <mxCell id="0" />
        <mxCell id="1" parent="0" />
        <mxCell id="LFz9WwMgTEt4GRY9JsuO-20" value="client_melihat_detail_latihan" style="swimlane;whiteSpace=wrap;html=1;fontSize=14;" parent="1" vertex="1">
          <mxGeometry x="320" y="40" width="430" height="700" as="geometry" />
        </mxCell>
        <mxCell id="hWmlGh6CoZH3oete9tJC-24" value="" style="edgeStyle=orthogonalEdgeStyle;rounded=0;orthogonalLoop=1;jettySize=auto;html=1;" parent="LFz9WwMgTEt4GRY9JsuO-20" source="hWmlGh6CoZH3oete9tJC-3" target="hWmlGh6CoZH3oete9tJC-23" edge="1">
          <mxGeometry relative="1" as="geometry" />
        </mxCell>
        <mxCell id="hWmlGh6CoZH3oete9tJC-3" value="Start" style="strokeWidth=2;html=1;shape=mxgraph.flowchart.terminator;whiteSpace=wrap;fontStyle=1;fontSize=17;fillColor=#f5f5f5;strokeColor=#666666;fontColor=#333333;fontFamily=Times New Roman;" parent="LFz9WwMgTEt4GRY9JsuO-20" vertex="1">
          <mxGeometry x="60" y="50" width="100" height="60" as="geometry" />
        </mxCell>
        <mxCell id="hWmlGh6CoZH3oete9tJC-4" value="End" style="strokeWidth=2;html=1;shape=mxgraph.flowchart.terminator;whiteSpace=wrap;fontStyle=1;fontSize=17;fillColor=#2B2B2B;strokeColor=#EDEDED;fontColor=#EDEDED;fontFamily=Times New Roman;" parent="LFz9WwMgTEt4GRY9JsuO-20" vertex="1">
          <mxGeometry x="60" y="600" width="100" height="60" as="geometry" />
        </mxCell>
        <mxCell id="hWmlGh6CoZH3oete9tJC-30" style="edgeStyle=orthogonalEdgeStyle;rounded=0;orthogonalLoop=1;jettySize=auto;html=1;" parent="LFz9WwMgTEt4GRY9JsuO-20" source="hWmlGh6CoZH3oete9tJC-23" target="hWmlGh6CoZH3oete9tJC-25" edge="1">
          <mxGeometry relative="1" as="geometry" />
        </mxCell>
        <mxCell id="hWmlGh6CoZH3oete9tJC-23" value="  membuka tab latihan" style="rounded=1;whiteSpace=wrap;html=1;fontSize=17;glass=0;strokeWidth=1;shadow=0;fontFamily=Times New Roman;" parent="LFz9WwMgTEt4GRY9JsuO-20" vertex="1">
          <mxGeometry x="30" y="140" width="160" height="35" as="geometry" />
        </mxCell>
        <mxCell id="hWmlGh6CoZH3oete9tJC-32" value="" style="edgeStyle=orthogonalEdgeStyle;rounded=0;orthogonalLoop=1;jettySize=auto;html=1;" parent="LFz9WwMgTEt4GRY9JsuO-20" source="hWmlGh6CoZH3oete9tJC-25" target="hWmlGh6CoZH3oete9tJC-27" edge="1">
          <mxGeometry relative="1" as="geometry" />
        </mxCell>
        <mxCell id="hWmlGh6CoZH3oete9tJC-25" value="daftar latihan &lt;br&gt;yang diikuti" style="shape=parallelogram;perimeter=parallelogramPerimeter;whiteSpace=wrap;html=1;fixedSize=1;strokeWidth=1;fillColor=#fff2cc;strokeColor=#d6b656;fontSize=17;fontFamily=Times New Roman;" parent="LFz9WwMgTEt4GRY9JsuO-20" vertex="1">
          <mxGeometry x="30" y="200" width="160" height="70" as="geometry" />
        </mxCell>
        <mxCell id="q5Jlv9dxOkdIS9fNMbRv-2" style="edgeStyle=orthogonalEdgeStyle;rounded=0;orthogonalLoop=1;jettySize=auto;html=1;entryX=0.5;entryY=0;entryDx=0;entryDy=0;" parent="LFz9WwMgTEt4GRY9JsuO-20" source="hWmlGh6CoZH3oete9tJC-26" target="q5Jlv9dxOkdIS9fNMbRv-1" edge="1">
          <mxGeometry relative="1" as="geometry" />
        </mxCell>
        <mxCell id="hWmlGh6CoZH3oete9tJC-26" value="  memilih satu latihan" style="rounded=1;whiteSpace=wrap;html=1;fontSize=17;glass=0;strokeWidth=1;shadow=0;fontFamily=Times New Roman;" parent="LFz9WwMgTEt4GRY9JsuO-20" vertex="1">
          <mxGeometry x="30" y="460" width="160" height="35" as="geometry" />
        </mxCell>
        <mxCell id="hWmlGh6CoZH3oete9tJC-33" value="" style="edgeStyle=orthogonalEdgeStyle;rounded=0;orthogonalLoop=1;jettySize=auto;html=1;" parent="LFz9WwMgTEt4GRY9JsuO-20" source="hWmlGh6CoZH3oete9tJC-27" target="hWmlGh6CoZH3oete9tJC-26" edge="1">
          <mxGeometry relative="1" as="geometry" />
        </mxCell>
        <mxCell id="jjuGBo1eYkzRIINazI31-2" value="" style="edgeStyle=orthogonalEdgeStyle;rounded=0;orthogonalLoop=1;jettySize=auto;html=1;" parent="LFz9WwMgTEt4GRY9JsuO-20" source="hWmlGh6CoZH3oete9tJC-27" target="jjuGBo1eYkzRIINazI31-1" edge="1">
          <mxGeometry relative="1" as="geometry" />
        </mxCell>
        <mxCell id="hWmlGh6CoZH3oete9tJC-27" value="ingin&lt;br&gt;menyaring?" style="rhombus;whiteSpace=wrap;html=1;fillColor=#dae8fc;strokeColor=#6c8ebf;aspect=fixed;fontSize=17;fontFamily=Times New Roman;" parent="LFz9WwMgTEt4GRY9JsuO-20" vertex="1">
          <mxGeometry x="50" y="300" width="120" height="120" as="geometry" />
        </mxCell>
        <mxCell id="hWmlGh6CoZH3oete9tJC-39" style="edgeStyle=orthogonalEdgeStyle;rounded=0;orthogonalLoop=1;jettySize=auto;html=1;entryX=1;entryY=0.5;entryDx=0;entryDy=0;" parent="LFz9WwMgTEt4GRY9JsuO-20" source="hWmlGh6CoZH3oete9tJC-36" target="hWmlGh6CoZH3oete9tJC-26" edge="1">
          <mxGeometry relative="1" as="geometry" />
        </mxCell>
        <mxCell id="hWmlGh6CoZH3oete9tJC-36" value="daftar latihan &lt;br&gt;yang tersaring" style="shape=parallelogram;perimeter=parallelogramPerimeter;whiteSpace=wrap;html=1;fixedSize=1;strokeWidth=1;fillColor=#fff2cc;strokeColor=#d6b656;fontSize=17;fontFamily=Times New Roman;" parent="LFz9WwMgTEt4GRY9JsuO-20" vertex="1">
          <mxGeometry x="240" y="442.5" width="160" height="70" as="geometry" />
        </mxCell>
        <mxCell id="jjuGBo1eYkzRIINazI31-3" value="" style="edgeStyle=orthogonalEdgeStyle;rounded=0;orthogonalLoop=1;jettySize=auto;html=1;" parent="LFz9WwMgTEt4GRY9JsuO-20" source="jjuGBo1eYkzRIINazI31-1" target="hWmlGh6CoZH3oete9tJC-36" edge="1">
          <mxGeometry relative="1" as="geometry" />
        </mxCell>
        <mxCell id="jjuGBo1eYkzRIINazI31-1" value="  memasukan kueri pencarian" style="rounded=1;whiteSpace=wrap;html=1;fontSize=17;glass=0;strokeWidth=1;shadow=0;fontFamily=Times New Roman;" parent="LFz9WwMgTEt4GRY9JsuO-20" vertex="1">
          <mxGeometry x="240" y="325" width="160" height="70" as="geometry" />
        </mxCell>
        <mxCell id="6imFzetkhiZJO2HdYkKx-3" style="edgeStyle=orthogonalEdgeStyle;rounded=0;orthogonalLoop=1;jettySize=auto;html=1;dashed=1;endArrow=none;endFill=0;strokeColor=#2B2B2B;" parent="LFz9WwMgTEt4GRY9JsuO-20" source="6imFzetkhiZJO2HdYkKx-1" target="hWmlGh6CoZH3oete9tJC-25" edge="1">
          <mxGeometry relative="1" as="geometry" />
        </mxCell>
        <mxCell id="6imFzetkhiZJO2HdYkKx-1" value="" style="strokeWidth=1;html=1;shape=mxgraph.flowchart.annotation_1;align=left;pointerEvents=1;strokeColor=#2B2B2B;" parent="LFz9WwMgTEt4GRY9JsuO-20" vertex="1">
          <mxGeometry x="240" y="203.75" width="169" height="62.5" as="geometry" />
        </mxCell>
        <mxCell id="6imFzetkhiZJO2HdYkKx-5" value="klien hanya akan melihat daftar latihan yang diikuti saja. per orang idealnya 9x" style="text;html=1;strokeColor=none;fillColor=none;align=left;verticalAlign=middle;whiteSpace=wrap;rounded=0;fontSize=14;fontFamily=Times New Roman;fontColor=#2B2B2B;" parent="LFz9WwMgTEt4GRY9JsuO-20" vertex="1">
          <mxGeometry x="250" y="211" width="172" height="48" as="geometry" />
        </mxCell>
        <mxCell id="q5Jlv9dxOkdIS9fNMbRv-3" style="edgeStyle=orthogonalEdgeStyle;rounded=0;orthogonalLoop=1;jettySize=auto;html=1;" parent="LFz9WwMgTEt4GRY9JsuO-20" source="q5Jlv9dxOkdIS9fNMbRv-1" target="hWmlGh6CoZH3oete9tJC-4" edge="1">
          <mxGeometry relative="1" as="geometry" />
        </mxCell>
        <mxCell id="q5Jlv9dxOkdIS9fNMbRv-1" value="detail sesi latihan" style="shape=parallelogram;perimeter=parallelogramPerimeter;whiteSpace=wrap;html=1;fixedSize=1;strokeWidth=1;fillColor=#fff2cc;strokeColor=#d6b656;fontSize=17;fontFamily=Times New Roman;" parent="LFz9WwMgTEt4GRY9JsuO-20" vertex="1">
          <mxGeometry x="30" y="530" width="160" height="35" as="geometry" />
        </mxCell>
        <mxCell id="dPo3ieTppHIDX0Mn7xpV-1" value="&lt;font color=&quot;#000000&quot; style=&quot;font-size: 17px;&quot;&gt;Ya&lt;/font&gt;" style="text;html=1;strokeColor=none;fillColor=none;align=center;verticalAlign=middle;whiteSpace=wrap;rounded=0;fontColor=#FFFFFF;fontSize=17;fontFamily=Times New Roman;" parent="LFz9WwMgTEt4GRY9JsuO-20" vertex="1">
          <mxGeometry x="185" y="325" width="20" height="20" as="geometry" />
        </mxCell>
        <mxCell id="dPo3ieTppHIDX0Mn7xpV-2" value="&lt;font color=&quot;#000000&quot; style=&quot;font-size: 17px;&quot;&gt;Tidak&lt;/font&gt;" style="text;html=1;strokeColor=none;fillColor=none;align=center;verticalAlign=middle;whiteSpace=wrap;rounded=0;fontColor=#FFFFFF;fontSize=17;fontFamily=Times New Roman;" parent="LFz9WwMgTEt4GRY9JsuO-20" vertex="1">
          <mxGeometry x="120" y="420" width="50" height="20" as="geometry" />
        </mxCell>
        <mxCell id="LFz9WwMgTEt4GRY9JsuO-39" value="(a)" style="text;html=1;strokeColor=none;fillColor=none;align=center;verticalAlign=middle;whiteSpace=wrap;rounded=0;fontStyle=1;fontSize=14;" parent="1" vertex="1">
          <mxGeometry x="60" y="740" width="220" height="30" as="geometry" />
        </mxCell>
        <mxCell id="LFz9WwMgTEt4GRY9JsuO-40" value="(b)" style="text;html=1;strokeColor=none;fillColor=none;align=center;verticalAlign=middle;whiteSpace=wrap;rounded=0;fontStyle=1;fontSize=14;" parent="1" vertex="1">
          <mxGeometry x="320" y="740" width="430" height="30" as="geometry" />
        </mxCell>
        <mxCell id="LFz9WwMgTEt4GRY9JsuO-53" value="client_melihat_progress_brace" style="swimlane;whiteSpace=wrap;html=1;fontSize=14;" parent="1" vertex="1">
          <mxGeometry x="60" y="40" width="220" height="700" as="geometry" />
        </mxCell>
        <mxCell id="hWmlGh6CoZH3oete9tJC-16" value="" style="edgeStyle=orthogonalEdgeStyle;rounded=0;orthogonalLoop=1;jettySize=auto;html=1;" parent="LFz9WwMgTEt4GRY9JsuO-53" source="hWmlGh6CoZH3oete9tJC-7" target="hWmlGh6CoZH3oete9tJC-11" edge="1">
          <mxGeometry relative="1" as="geometry" />
        </mxCell>
        <mxCell id="hWmlGh6CoZH3oete9tJC-7" value="Start" style="strokeWidth=2;html=1;shape=mxgraph.flowchart.terminator;whiteSpace=wrap;fontStyle=1;fontSize=17;fillColor=#f5f5f5;strokeColor=#666666;fontColor=#333333;fontFamily=Times New Roman;" parent="LFz9WwMgTEt4GRY9JsuO-53" vertex="1">
          <mxGeometry x="60" y="50" width="100" height="60" as="geometry" />
        </mxCell>
        <mxCell id="hWmlGh6CoZH3oete9tJC-8" value="End" style="strokeWidth=2;html=1;shape=mxgraph.flowchart.terminator;whiteSpace=wrap;fontStyle=1;fontSize=17;fillColor=#2B2B2B;strokeColor=#EDEDED;fontColor=#EDEDED;fontFamily=Times New Roman;" parent="LFz9WwMgTEt4GRY9JsuO-53" vertex="1">
          <mxGeometry x="60" y="600" width="100" height="60" as="geometry" />
        </mxCell>
        <mxCell id="hWmlGh6CoZH3oete9tJC-17" value="" style="edgeStyle=orthogonalEdgeStyle;rounded=0;orthogonalLoop=1;jettySize=auto;html=1;" parent="LFz9WwMgTEt4GRY9JsuO-53" source="hWmlGh6CoZH3oete9tJC-11" target="hWmlGh6CoZH3oete9tJC-12" edge="1">
          <mxGeometry relative="1" as="geometry" />
        </mxCell>
        <mxCell id="hWmlGh6CoZH3oete9tJC-11" value="  membuka tab brace" style="rounded=1;whiteSpace=wrap;html=1;fontSize=17;glass=0;strokeWidth=1;shadow=0;fontFamily=Times New Roman;" parent="LFz9WwMgTEt4GRY9JsuO-53" vertex="1">
          <mxGeometry x="30" y="140" width="160" height="35" as="geometry" />
        </mxCell>
        <mxCell id="hWmlGh6CoZH3oete9tJC-20" value="" style="edgeStyle=orthogonalEdgeStyle;rounded=0;orthogonalLoop=1;jettySize=auto;html=1;" parent="LFz9WwMgTEt4GRY9JsuO-53" source="hWmlGh6CoZH3oete9tJC-12" target="hWmlGh6CoZH3oete9tJC-13" edge="1">
          <mxGeometry relative="1" as="geometry" />
        </mxCell>
        <mxCell id="hWmlGh6CoZH3oete9tJC-12" value="daftar brace &lt;br&gt;yang dimiliki" style="shape=parallelogram;perimeter=parallelogramPerimeter;whiteSpace=wrap;html=1;fixedSize=1;strokeWidth=1;fillColor=#fff2cc;strokeColor=#d6b656;fontSize=17;fontFamily=Times New Roman;" parent="LFz9WwMgTEt4GRY9JsuO-53" vertex="1">
          <mxGeometry x="30" y="200" width="160" height="70" as="geometry" />
        </mxCell>
        <mxCell id="hWmlGh6CoZH3oete9tJC-21" value="" style="edgeStyle=orthogonalEdgeStyle;rounded=0;orthogonalLoop=1;jettySize=auto;html=1;" parent="LFz9WwMgTEt4GRY9JsuO-53" source="hWmlGh6CoZH3oete9tJC-13" target="hWmlGh6CoZH3oete9tJC-14" edge="1">
          <mxGeometry relative="1" as="geometry" />
        </mxCell>
        <mxCell id="hWmlGh6CoZH3oete9tJC-13" value="  memilih satu brace" style="rounded=1;whiteSpace=wrap;html=1;fontSize=17;glass=0;strokeWidth=1;shadow=0;fontFamily=Times New Roman;" parent="LFz9WwMgTEt4GRY9JsuO-53" vertex="1">
          <mxGeometry x="30" y="300" width="160" height="35" as="geometry" />
        </mxCell>
        <mxCell id="hWmlGh6CoZH3oete9tJC-22" style="edgeStyle=orthogonalEdgeStyle;rounded=0;orthogonalLoop=1;jettySize=auto;html=1;entryX=0.5;entryY=0;entryDx=0;entryDy=0;entryPerimeter=0;" parent="LFz9WwMgTEt4GRY9JsuO-53" source="hWmlGh6CoZH3oete9tJC-14" target="hWmlGh6CoZH3oete9tJC-8" edge="1">
          <mxGeometry relative="1" as="geometry" />
        </mxCell>
        <mxCell id="hWmlGh6CoZH3oete9tJC-14" value="detail brace" style="shape=parallelogram;perimeter=parallelogramPerimeter;whiteSpace=wrap;html=1;fixedSize=1;strokeWidth=1;fillColor=#fff2cc;strokeColor=#d6b656;fontSize=17;fontFamily=Times New Roman;" parent="LFz9WwMgTEt4GRY9JsuO-53" vertex="1">
          <mxGeometry x="30" y="370" width="160" height="35" as="geometry" />
        </mxCell>
        <mxCell id="hWmlGh6CoZH3oete9tJC-1" value="client_melihat_progress_latihan" style="swimlane;whiteSpace=wrap;html=1;fontSize=14;" parent="1" vertex="1">
          <mxGeometry x="790" y="40" width="430" height="700" as="geometry" />
        </mxCell>
        <mxCell id="hWmlGh6CoZH3oete9tJC-50" style="edgeStyle=orthogonalEdgeStyle;rounded=0;orthogonalLoop=1;jettySize=auto;html=1;" parent="hWmlGh6CoZH3oete9tJC-1" source="hWmlGh6CoZH3oete9tJC-9" target="hWmlGh6CoZH3oete9tJC-40" edge="1">
          <mxGeometry relative="1" as="geometry" />
        </mxCell>
        <mxCell id="hWmlGh6CoZH3oete9tJC-9" value="Start" style="strokeWidth=2;html=1;shape=mxgraph.flowchart.terminator;whiteSpace=wrap;fontStyle=1;fontSize=17;fillColor=#f5f5f5;strokeColor=#666666;fontColor=#333333;fontFamily=Times New Roman;" parent="hWmlGh6CoZH3oete9tJC-1" vertex="1">
          <mxGeometry x="60" y="50" width="100" height="60" as="geometry" />
        </mxCell>
        <mxCell id="hWmlGh6CoZH3oete9tJC-10" value="End" style="strokeWidth=2;html=1;shape=mxgraph.flowchart.terminator;whiteSpace=wrap;fontStyle=1;fontSize=17;fillColor=#2B2B2B;strokeColor=#EDEDED;fontColor=#EDEDED;fontFamily=Times New Roman;" parent="hWmlGh6CoZH3oete9tJC-1" vertex="1">
          <mxGeometry x="60" y="600" width="100" height="60" as="geometry" />
        </mxCell>
        <mxCell id="6imFzetkhiZJO2HdYkKx-7" value="" style="edgeStyle=orthogonalEdgeStyle;rounded=0;orthogonalLoop=1;jettySize=auto;html=1;" parent="hWmlGh6CoZH3oete9tJC-1" source="hWmlGh6CoZH3oete9tJC-40" target="hWmlGh6CoZH3oete9tJC-48" edge="1">
          <mxGeometry relative="1" as="geometry" />
        </mxCell>
        <mxCell id="hWmlGh6CoZH3oete9tJC-40" value="  membuka tab profil" style="rounded=1;whiteSpace=wrap;html=1;fontSize=17;glass=0;strokeWidth=1;shadow=0;fontFamily=Times New Roman;" parent="hWmlGh6CoZH3oete9tJC-1" vertex="1">
          <mxGeometry x="30" y="140" width="160" height="35" as="geometry" />
        </mxCell>
        <mxCell id="hWmlGh6CoZH3oete9tJC-54" value="" style="edgeStyle=orthogonalEdgeStyle;rounded=0;orthogonalLoop=1;jettySize=auto;html=1;" parent="hWmlGh6CoZH3oete9tJC-1" source="hWmlGh6CoZH3oete9tJC-45" target="hWmlGh6CoZH3oete9tJC-47" edge="1">
          <mxGeometry relative="1" as="geometry" />
        </mxCell>
        <mxCell id="hWmlGh6CoZH3oete9tJC-45" value="daftar foto latihan&lt;br&gt;dan perbandingan" style="shape=parallelogram;perimeter=parallelogramPerimeter;whiteSpace=wrap;html=1;fixedSize=1;strokeWidth=1;fillColor=#fff2cc;strokeColor=#d6b656;fontSize=17;fontFamily=Times New Roman;" parent="hWmlGh6CoZH3oete9tJC-1" vertex="1">
          <mxGeometry x="30" y="280" width="160" height="70" as="geometry" />
        </mxCell>
        <mxCell id="hWmlGh6CoZH3oete9tJC-55" style="edgeStyle=orthogonalEdgeStyle;rounded=0;orthogonalLoop=1;jettySize=auto;html=1;" parent="hWmlGh6CoZH3oete9tJC-1" source="hWmlGh6CoZH3oete9tJC-47" target="hWmlGh6CoZH3oete9tJC-10" edge="1">
          <mxGeometry relative="1" as="geometry" />
        </mxCell>
        <mxCell id="hWmlGh6CoZH3oete9tJC-47" value="menelusuri konten" style="rounded=1;whiteSpace=wrap;html=1;fontSize=17;glass=0;strokeWidth=1;shadow=0;fontFamily=Times New Roman;" parent="hWmlGh6CoZH3oete9tJC-1" vertex="1">
          <mxGeometry x="30" y="380" width="160" height="35" as="geometry" />
        </mxCell>
        <mxCell id="hWmlGh6CoZH3oete9tJC-53" value="" style="edgeStyle=orthogonalEdgeStyle;rounded=0;orthogonalLoop=1;jettySize=auto;html=1;" parent="hWmlGh6CoZH3oete9tJC-1" source="hWmlGh6CoZH3oete9tJC-48" target="hWmlGh6CoZH3oete9tJC-45" edge="1">
          <mxGeometry relative="1" as="geometry" />
        </mxCell>
        <mxCell id="hWmlGh6CoZH3oete9tJC-48" value="  menekan menu galeri" style="rounded=1;whiteSpace=wrap;html=1;fontSize=17;glass=0;strokeWidth=1;shadow=0;fontFamily=Times New Roman;" parent="hWmlGh6CoZH3oete9tJC-1" vertex="1">
          <mxGeometry x="30" y="210" width="160" height="35" as="geometry" />
        </mxCell>
        <mxCell id="6imFzetkhiZJO2HdYkKx-8" style="edgeStyle=orthogonalEdgeStyle;rounded=0;orthogonalLoop=1;jettySize=auto;html=1;entryX=1;entryY=0.5;entryDx=0;entryDy=0;dashed=1;endArrow=none;endFill=0;strokeColor=#2B2B2B;" parent="hWmlGh6CoZH3oete9tJC-1" source="6imFzetkhiZJO2HdYkKx-4" target="hWmlGh6CoZH3oete9tJC-48" edge="1">
          <mxGeometry relative="1" as="geometry" />
        </mxCell>
        <mxCell id="6imFzetkhiZJO2HdYkKx-4" value="" style="strokeWidth=1;html=1;shape=mxgraph.flowchart.annotation_1;align=left;pointerEvents=1;strokeColor=#2B2B2B;" parent="hWmlGh6CoZH3oete9tJC-1" vertex="1">
          <mxGeometry x="229" y="196.25" width="180" height="62.5" as="geometry" />
        </mxCell>
        <mxCell id="6imFzetkhiZJO2HdYkKx-9" value="perlu menu page baru karena kontennya luas dan konteksnya lain dari data pribadi.&amp;nbsp;" style="text;html=1;strokeColor=none;fillColor=none;align=left;verticalAlign=middle;whiteSpace=wrap;rounded=0;fontSize=14;fontFamily=Times New Roman;fontColor=#2B2B2B;" parent="hWmlGh6CoZH3oete9tJC-1" vertex="1">
          <mxGeometry x="236" y="203.5" width="186" height="48" as="geometry" />
        </mxCell>
        <mxCell id="quEtgiPa-Enb8rLY7-Cg-3" value="" style="edgeStyle=orthogonalEdgeStyle;rounded=0;orthogonalLoop=1;jettySize=auto;html=1;fontColor=#2B2B2B;endArrow=none;endFill=0;dashed=1;strokeColor=#2B2B2B;" parent="hWmlGh6CoZH3oete9tJC-1" source="quEtgiPa-Enb8rLY7-Cg-1" target="hWmlGh6CoZH3oete9tJC-47" edge="1">
          <mxGeometry relative="1" as="geometry" />
        </mxCell>
        <mxCell id="quEtgiPa-Enb8rLY7-Cg-1" value="" style="strokeWidth=1;html=1;shape=mxgraph.flowchart.annotation_1;align=left;pointerEvents=1;strokeColor=#2B2B2B;" parent="hWmlGh6CoZH3oete9tJC-1" vertex="1">
          <mxGeometry x="229" y="347.5" width="180" height="100" as="geometry" />
        </mxCell>
        <mxCell id="quEtgiPa-Enb8rLY7-Cg-2" value="konten sangat banyak. per sesi latihan dibutuhkan 10 gambar. ada foto perbandingan untuk encouragement. sajian perlu dibatasi dalam satu halaman" style="text;html=1;strokeColor=none;fillColor=none;align=left;verticalAlign=middle;whiteSpace=wrap;rounded=0;fontSize=14;fontFamily=Times New Roman;fontColor=#2B2B2B;" parent="hWmlGh6CoZH3oete9tJC-1" vertex="1">
          <mxGeometry x="236" y="372.5" width="186" height="48" as="geometry" />
        </mxCell>
        <mxCell id="hWmlGh6CoZH3oete9tJC-2" value="(c)" style="text;html=1;strokeColor=none;fillColor=none;align=center;verticalAlign=middle;whiteSpace=wrap;rounded=0;fontStyle=1;fontSize=14;" parent="1" vertex="1">
          <mxGeometry x="790" y="740" width="430" height="30" as="geometry" />
        </mxCell>
      </root>
    </mxGraphModel>
  </diagram>
  <diagram id="hyfCMDR3kP1sbjrgUT1Q" name="Draft">
    <mxGraphModel dx="568" dy="1173" grid="1" gridSize="10" guides="1" tooltips="1" connect="1" arrows="1" fold="1" page="1" pageScale="1" pageWidth="850" pageHeight="1100" math="0" shadow="0">
      <root>
        <mxCell id="0" />
        <mxCell id="1" parent="0" />
        <mxCell id="fV304MDlqGUUFp1leCkt-42" value="client_booking_latihan" style="swimlane;whiteSpace=wrap;html=1;" parent="1" vertex="1">
          <mxGeometry x="910" y="50" width="850" height="1070" as="geometry" />
        </mxCell>
        <mxCell id="fV304MDlqGUUFp1leCkt-1" value="End" style="ellipse;whiteSpace=wrap;html=1;aspect=fixed;fillColor=#f8cecc;strokeColor=#b85450;fontStyle=1;strokeWidth=2;" parent="fV304MDlqGUUFp1leCkt-42" vertex="1">
          <mxGeometry x="692.5" y="900" width="70" height="70" as="geometry" />
        </mxCell>
        <mxCell id="fV304MDlqGUUFp1leCkt-3" value="Start" style="ellipse;whiteSpace=wrap;html=1;aspect=fixed;fillColor=#d5e8d4;strokeColor=#82b366;fontStyle=1;strokeWidth=2;" parent="fV304MDlqGUUFp1leCkt-42" vertex="1">
          <mxGeometry x="102.5" y="60" width="70" height="70" as="geometry" />
        </mxCell>
        <mxCell id="fV304MDlqGUUFp1leCkt-6" value=" &amp;nbsp;memiliki &lt;br&gt;kuota&amp;nbsp;paket&lt;br&gt;latihan?" style="rhombus;whiteSpace=wrap;html=1;strokeWidth=1;fillColor=#dae8fc;strokeColor=#6c8ebf;" parent="fV304MDlqGUUFp1leCkt-42" vertex="1">
          <mxGeometry x="77.5" y="270" width="120" height="110" as="geometry" />
        </mxCell>
        <mxCell id="fV304MDlqGUUFp1leCkt-7" value="" style="edgeStyle=orthogonalEdgeStyle;rounded=0;orthogonalLoop=1;jettySize=auto;html=1;" parent="fV304MDlqGUUFp1leCkt-42" source="fV304MDlqGUUFp1leCkt-8" target="fV304MDlqGUUFp1leCkt-6" edge="1">
          <mxGeometry relative="1" as="geometry" />
        </mxCell>
        <mxCell id="fV304MDlqGUUFp1leCkt-8" value="  membuka tab&lt;br&gt;jadwal latihan" style="rounded=1;whiteSpace=wrap;html=1;fontSize=12;glass=0;strokeWidth=1;shadow=0;" parent="fV304MDlqGUUFp1leCkt-42" vertex="1">
          <mxGeometry x="72.5" y="170" width="129" height="70" as="geometry" />
        </mxCell>
        <mxCell id="fV304MDlqGUUFp1leCkt-2" style="edgeStyle=orthogonalEdgeStyle;rounded=0;orthogonalLoop=1;jettySize=auto;html=1;entryX=0.5;entryY=0;entryDx=0;entryDy=0;fontColor=#FFFFFF;" parent="fV304MDlqGUUFp1leCkt-42" source="fV304MDlqGUUFp1leCkt-3" target="fV304MDlqGUUFp1leCkt-8" edge="1">
          <mxGeometry relative="1" as="geometry" />
        </mxCell>
        <mxCell id="fV304MDlqGUUFp1leCkt-9" value="&lt;font color=&quot;#000000&quot;&gt;Ya&lt;/font&gt;" style="text;html=1;strokeColor=none;fillColor=none;align=center;verticalAlign=middle;whiteSpace=wrap;rounded=0;fontColor=#FFFFFF;" parent="fV304MDlqGUUFp1leCkt-42" vertex="1">
          <mxGeometry x="102.5" y="380" width="20" height="20" as="geometry" />
        </mxCell>
        <mxCell id="fV304MDlqGUUFp1leCkt-10" value="&lt;font color=&quot;#000000&quot;&gt;Tidak&lt;/font&gt;" style="text;html=1;strokeColor=none;fillColor=none;align=center;verticalAlign=middle;whiteSpace=wrap;rounded=0;fontColor=#FFFFFF;" parent="fV304MDlqGUUFp1leCkt-42" vertex="1">
          <mxGeometry x="205" y="290" width="20" height="20" as="geometry" />
        </mxCell>
        <mxCell id="fV304MDlqGUUFp1leCkt-12" value="pilihan slot jadwal latihan" style="shape=parallelogram;perimeter=parallelogramPerimeter;whiteSpace=wrap;html=1;fixedSize=1;strokeWidth=1;fillColor=#fff2cc;strokeColor=#d6b656;" parent="fV304MDlqGUUFp1leCkt-42" vertex="1">
          <mxGeometry x="72.5" y="430" width="130" height="50" as="geometry" />
        </mxCell>
        <mxCell id="fV304MDlqGUUFp1leCkt-4" value="" style="edgeStyle=orthogonalEdgeStyle;rounded=0;orthogonalLoop=1;jettySize=auto;html=1;" parent="fV304MDlqGUUFp1leCkt-42" source="fV304MDlqGUUFp1leCkt-6" target="fV304MDlqGUUFp1leCkt-12" edge="1">
          <mxGeometry relative="1" as="geometry" />
        </mxCell>
        <mxCell id="fV304MDlqGUUFp1leCkt-14" value="   memilih jadwal yang masih tersedia" style="rounded=1;whiteSpace=wrap;html=1;fontSize=12;glass=0;strokeWidth=1;shadow=0;" parent="fV304MDlqGUUFp1leCkt-42" vertex="1">
          <mxGeometry x="77.5" y="530" width="120" height="70" as="geometry" />
        </mxCell>
        <mxCell id="fV304MDlqGUUFp1leCkt-11" value="" style="edgeStyle=orthogonalEdgeStyle;rounded=0;orthogonalLoop=1;jettySize=auto;html=1;" parent="fV304MDlqGUUFp1leCkt-42" source="fV304MDlqGUUFp1leCkt-12" target="fV304MDlqGUUFp1leCkt-14" edge="1">
          <mxGeometry relative="1" as="geometry" />
        </mxCell>
        <mxCell id="fV304MDlqGUUFp1leCkt-16" value="  dapat mendatangi sesi latihan" style="rounded=1;whiteSpace=wrap;html=1;fontSize=12;glass=0;strokeWidth=1;shadow=0;" parent="fV304MDlqGUUFp1leCkt-42" vertex="1">
          <mxGeometry x="77.5" y="900" width="120" height="70" as="geometry" />
        </mxCell>
        <mxCell id="fV304MDlqGUUFp1leCkt-18" value="  memilih paket&lt;br&gt;latihan" style="rounded=1;whiteSpace=wrap;html=1;fontSize=12;glass=0;strokeWidth=1;shadow=0;" parent="fV304MDlqGUUFp1leCkt-42" vertex="1">
          <mxGeometry x="487.5" y="290" width="120" height="70" as="geometry" />
        </mxCell>
        <mxCell id="fV304MDlqGUUFp1leCkt-19" value="" style="edgeStyle=orthogonalEdgeStyle;rounded=0;orthogonalLoop=1;jettySize=auto;html=1;" parent="fV304MDlqGUUFp1leCkt-42" source="fV304MDlqGUUFp1leCkt-20" target="fV304MDlqGUUFp1leCkt-18" edge="1">
          <mxGeometry relative="1" as="geometry" />
        </mxCell>
        <mxCell id="fV304MDlqGUUFp1leCkt-20" value="instruksi untuk&lt;br&gt;membeli paket latihan" style="shape=parallelogram;perimeter=parallelogramPerimeter;whiteSpace=wrap;html=1;fixedSize=1;strokeWidth=1;fillColor=#fff2cc;strokeColor=#d6b656;" parent="fV304MDlqGUUFp1leCkt-42" vertex="1">
          <mxGeometry x="277.5" y="300" width="160" height="50" as="geometry" />
        </mxCell>
        <mxCell id="fV304MDlqGUUFp1leCkt-5" value="" style="edgeStyle=orthogonalEdgeStyle;rounded=0;orthogonalLoop=1;jettySize=auto;html=1;" parent="fV304MDlqGUUFp1leCkt-42" source="fV304MDlqGUUFp1leCkt-6" target="fV304MDlqGUUFp1leCkt-20" edge="1">
          <mxGeometry relative="1" as="geometry" />
        </mxCell>
        <mxCell id="fV304MDlqGUUFp1leCkt-22" value="status jadwal menunggu konfirmasi staff" style="shape=parallelogram;perimeter=parallelogramPerimeter;whiteSpace=wrap;html=1;fixedSize=1;strokeWidth=1;fillColor=#fff2cc;strokeColor=#d6b656;" parent="fV304MDlqGUUFp1leCkt-42" vertex="1">
          <mxGeometry x="50" y="640" width="175" height="50" as="geometry" />
        </mxCell>
        <mxCell id="fV304MDlqGUUFp1leCkt-13" value="" style="edgeStyle=orthogonalEdgeStyle;rounded=0;orthogonalLoop=1;jettySize=auto;html=1;" parent="fV304MDlqGUUFp1leCkt-42" source="fV304MDlqGUUFp1leCkt-14" target="fV304MDlqGUUFp1leCkt-22" edge="1">
          <mxGeometry relative="1" as="geometry" />
        </mxCell>
        <mxCell id="fV304MDlqGUUFp1leCkt-23" style="edgeStyle=orthogonalEdgeStyle;rounded=0;orthogonalLoop=1;jettySize=auto;html=1;entryX=1;entryY=0.5;entryDx=0;entryDy=0;" parent="fV304MDlqGUUFp1leCkt-42" source="fV304MDlqGUUFp1leCkt-24" target="fV304MDlqGUUFp1leCkt-14" edge="1">
          <mxGeometry relative="1" as="geometry">
            <Array as="points">
              <mxPoint x="287.5" y="765" />
              <mxPoint x="287.5" y="565" />
            </Array>
          </mxGeometry>
        </mxCell>
        <mxCell id="fV304MDlqGUUFp1leCkt-24" value="jadwal&lt;br&gt;disetujui?" style="rhombus;whiteSpace=wrap;html=1;strokeWidth=1;fillColor=#dae8fc;strokeColor=#6c8ebf;" parent="fV304MDlqGUUFp1leCkt-42" vertex="1">
          <mxGeometry x="77.5" y="740" width="120" height="110" as="geometry" />
        </mxCell>
        <mxCell id="fV304MDlqGUUFp1leCkt-21" value="" style="edgeStyle=orthogonalEdgeStyle;rounded=0;orthogonalLoop=1;jettySize=auto;html=1;" parent="fV304MDlqGUUFp1leCkt-42" source="fV304MDlqGUUFp1leCkt-22" target="fV304MDlqGUUFp1leCkt-24" edge="1">
          <mxGeometry relative="1" as="geometry" />
        </mxCell>
        <mxCell id="fV304MDlqGUUFp1leCkt-25" value="&lt;font color=&quot;#000000&quot;&gt;Tidak&lt;/font&gt;" style="text;html=1;strokeColor=none;fillColor=none;align=center;verticalAlign=middle;whiteSpace=wrap;rounded=0;fontColor=#FFFFFF;" parent="fV304MDlqGUUFp1leCkt-42" vertex="1">
          <mxGeometry x="217.5" y="780" width="20" height="20" as="geometry" />
        </mxCell>
        <mxCell id="fV304MDlqGUUFp1leCkt-26" value="" style="edgeStyle=orthogonalEdgeStyle;rounded=0;orthogonalLoop=1;jettySize=auto;html=1;" parent="fV304MDlqGUUFp1leCkt-42" edge="1">
          <mxGeometry relative="1" as="geometry">
            <mxPoint x="137.5" y="850" as="sourcePoint" />
            <mxPoint x="137.5" y="900" as="targetPoint" />
          </mxGeometry>
        </mxCell>
        <mxCell id="fV304MDlqGUUFp1leCkt-27" value="&lt;font color=&quot;#000000&quot;&gt;Ya&lt;/font&gt;" style="text;html=1;strokeColor=none;fillColor=none;align=center;verticalAlign=middle;whiteSpace=wrap;rounded=0;fontColor=#FFFFFF;" parent="fV304MDlqGUUFp1leCkt-42" vertex="1">
          <mxGeometry x="102.5" y="850" width="20" height="20" as="geometry" />
        </mxCell>
        <mxCell id="fV304MDlqGUUFp1leCkt-29" style="edgeStyle=orthogonalEdgeStyle;rounded=0;orthogonalLoop=1;jettySize=auto;html=1;entryX=1;entryY=0.5;entryDx=0;entryDy=0;" parent="fV304MDlqGUUFp1leCkt-42" source="fV304MDlqGUUFp1leCkt-30" target="fV304MDlqGUUFp1leCkt-14" edge="1">
          <mxGeometry relative="1" as="geometry">
            <Array as="points">
              <mxPoint x="367.5" y="565" />
            </Array>
          </mxGeometry>
        </mxCell>
        <mxCell id="fV304MDlqGUUFp1leCkt-30" value="  datang?" style="rhombus;whiteSpace=wrap;html=1;strokeWidth=1;fillColor=#dae8fc;strokeColor=#6c8ebf;" parent="fV304MDlqGUUFp1leCkt-42" vertex="1">
          <mxGeometry x="307.5" y="880" width="120" height="110" as="geometry" />
        </mxCell>
        <mxCell id="fV304MDlqGUUFp1leCkt-15" value="" style="edgeStyle=orthogonalEdgeStyle;rounded=0;orthogonalLoop=1;jettySize=auto;html=1;" parent="fV304MDlqGUUFp1leCkt-42" source="fV304MDlqGUUFp1leCkt-16" target="fV304MDlqGUUFp1leCkt-30" edge="1">
          <mxGeometry relative="1" as="geometry" />
        </mxCell>
        <mxCell id="fV304MDlqGUUFp1leCkt-31" value="&lt;font color=&quot;#000000&quot;&gt;Tidak&lt;/font&gt;" style="text;html=1;strokeColor=none;fillColor=none;align=center;verticalAlign=middle;whiteSpace=wrap;rounded=0;fontColor=#FFFFFF;" parent="fV304MDlqGUUFp1leCkt-42" vertex="1">
          <mxGeometry x="327.5" y="860" width="20" height="20" as="geometry" />
        </mxCell>
        <mxCell id="fV304MDlqGUUFp1leCkt-32" value="" style="edgeStyle=orthogonalEdgeStyle;rounded=0;orthogonalLoop=1;jettySize=auto;html=1;" parent="fV304MDlqGUUFp1leCkt-42" source="fV304MDlqGUUFp1leCkt-33" target="fV304MDlqGUUFp1leCkt-1" edge="1">
          <mxGeometry relative="1" as="geometry" />
        </mxCell>
        <mxCell id="fV304MDlqGUUFp1leCkt-33" value="Latihan&lt;br&gt;dilaksanakan" style="rounded=1;whiteSpace=wrap;html=1;fontSize=12;glass=0;strokeWidth=1;shadow=0;" parent="fV304MDlqGUUFp1leCkt-42" vertex="1">
          <mxGeometry x="497.5" y="900" width="120" height="70" as="geometry" />
        </mxCell>
        <mxCell id="fV304MDlqGUUFp1leCkt-28" value="" style="edgeStyle=orthogonalEdgeStyle;rounded=0;orthogonalLoop=1;jettySize=auto;html=1;" parent="fV304MDlqGUUFp1leCkt-42" source="fV304MDlqGUUFp1leCkt-30" target="fV304MDlqGUUFp1leCkt-33" edge="1">
          <mxGeometry relative="1" as="geometry" />
        </mxCell>
        <mxCell id="fV304MDlqGUUFp1leCkt-34" value="&lt;font color=&quot;#000000&quot;&gt;Ya&lt;/font&gt;" style="text;html=1;strokeColor=none;fillColor=none;align=center;verticalAlign=middle;whiteSpace=wrap;rounded=0;fontColor=#FFFFFF;" parent="fV304MDlqGUUFp1leCkt-42" vertex="1">
          <mxGeometry x="427.5" y="910" width="20" height="20" as="geometry" />
        </mxCell>
        <mxCell id="fV304MDlqGUUFp1leCkt-36" value="  melakukan&lt;br&gt;pembayaran" style="ellipse;whiteSpace=wrap;html=1;fillColor=#d5e8d4;strokeColor=#82b366;strokeWidth=2;fontStyle=1" parent="fV304MDlqGUUFp1leCkt-42" vertex="1">
          <mxGeometry x="667.5" y="285" width="120" height="80" as="geometry" />
        </mxCell>
        <mxCell id="fV304MDlqGUUFp1leCkt-17" value="" style="edgeStyle=orthogonalEdgeStyle;rounded=0;orthogonalLoop=1;jettySize=auto;html=1;" parent="fV304MDlqGUUFp1leCkt-42" source="fV304MDlqGUUFp1leCkt-18" target="fV304MDlqGUUFp1leCkt-36" edge="1">
          <mxGeometry relative="1" as="geometry" />
        </mxCell>
        <mxCell id="fV304MDlqGUUFp1leCkt-37" style="edgeStyle=orthogonalEdgeStyle;rounded=0;orthogonalLoop=1;jettySize=auto;html=1;entryX=0.5;entryY=0;entryDx=0;entryDy=0;" parent="fV304MDlqGUUFp1leCkt-42" source="fV304MDlqGUUFp1leCkt-39" target="fV304MDlqGUUFp1leCkt-1" edge="1">
          <mxGeometry relative="1" as="geometry" />
        </mxCell>
        <mxCell id="fV304MDlqGUUFp1leCkt-38" style="edgeStyle=orthogonalEdgeStyle;rounded=0;orthogonalLoop=1;jettySize=auto;html=1;entryX=1;entryY=0.5;entryDx=0;entryDy=0;" parent="fV304MDlqGUUFp1leCkt-42" source="fV304MDlqGUUFp1leCkt-39" target="fV304MDlqGUUFp1leCkt-12" edge="1">
          <mxGeometry relative="1" as="geometry" />
        </mxCell>
        <mxCell id="fV304MDlqGUUFp1leCkt-39" value="pembayaran&lt;br&gt;berhasil" style="rhombus;whiteSpace=wrap;html=1;strokeWidth=1;fillColor=#dae8fc;strokeColor=#6c8ebf;" parent="fV304MDlqGUUFp1leCkt-42" vertex="1">
          <mxGeometry x="667.5" y="400" width="120" height="110" as="geometry" />
        </mxCell>
        <mxCell id="fV304MDlqGUUFp1leCkt-35" value="" style="edgeStyle=orthogonalEdgeStyle;rounded=0;orthogonalLoop=1;jettySize=auto;html=1;" parent="fV304MDlqGUUFp1leCkt-42" source="fV304MDlqGUUFp1leCkt-36" target="fV304MDlqGUUFp1leCkt-39" edge="1">
          <mxGeometry relative="1" as="geometry" />
        </mxCell>
        <mxCell id="fV304MDlqGUUFp1leCkt-40" value="&lt;font color=&quot;#000000&quot;&gt;Tidak&lt;/font&gt;" style="text;html=1;strokeColor=none;fillColor=none;align=center;verticalAlign=middle;whiteSpace=wrap;rounded=0;fontColor=#FFFFFF;" parent="fV304MDlqGUUFp1leCkt-42" vertex="1">
          <mxGeometry x="687.5" y="510" width="20" height="20" as="geometry" />
        </mxCell>
        <mxCell id="fV304MDlqGUUFp1leCkt-41" value="&lt;font color=&quot;#000000&quot;&gt;Ya&lt;/font&gt;" style="text;html=1;strokeColor=none;fillColor=none;align=center;verticalAlign=middle;whiteSpace=wrap;rounded=0;fontColor=#FFFFFF;" parent="fV304MDlqGUUFp1leCkt-42" vertex="1">
          <mxGeometry x="637.5" y="420" width="20" height="20" as="geometry" />
        </mxCell>
        <mxCell id="fV304MDlqGUUFp1leCkt-43" value="client_membayar_latihan" style="swimlane;whiteSpace=wrap;html=1;rounded=1;" parent="1" vertex="1">
          <mxGeometry x="1800" y="50" width="720" height="1070" as="geometry" />
        </mxCell>
        <mxCell id="fV304MDlqGUUFp1leCkt-44" value="End" style="ellipse;whiteSpace=wrap;html=1;aspect=fixed;fillColor=#f8cecc;strokeColor=#b85450;fontStyle=1;strokeWidth=2;" parent="fV304MDlqGUUFp1leCkt-43" vertex="1">
          <mxGeometry x="115" y="900" width="70" height="70" as="geometry" />
        </mxCell>
        <mxCell id="fV304MDlqGUUFp1leCkt-46" value="Start" style="ellipse;whiteSpace=wrap;html=1;aspect=fixed;fillColor=#d5e8d4;strokeColor=#82b366;fontStyle=1;strokeWidth=2;" parent="fV304MDlqGUUFp1leCkt-43" vertex="1">
          <mxGeometry x="115" y="80" width="70" height="70" as="geometry" />
        </mxCell>
        <mxCell id="fV304MDlqGUUFp1leCkt-47" style="edgeStyle=orthogonalEdgeStyle;rounded=0;orthogonalLoop=1;jettySize=auto;html=1;entryX=1;entryY=0.5;entryDx=0;entryDy=0;" parent="fV304MDlqGUUFp1leCkt-43" source="fV304MDlqGUUFp1leCkt-49" target="fV304MDlqGUUFp1leCkt-44" edge="1">
          <mxGeometry relative="1" as="geometry">
            <Array as="points">
              <mxPoint x="600" y="935" />
            </Array>
          </mxGeometry>
        </mxCell>
        <mxCell id="fV304MDlqGUUFp1leCkt-49" value="coba lagi?" style="rhombus;whiteSpace=wrap;html=1;strokeWidth=1;fillColor=#dae8fc;strokeColor=#6c8ebf;" parent="fV304MDlqGUUFp1leCkt-43" vertex="1">
          <mxGeometry x="540" y="630" width="120" height="110" as="geometry" />
        </mxCell>
        <mxCell id="fV304MDlqGUUFp1leCkt-51" value="Client melakukan transaksi" style="rounded=1;whiteSpace=wrap;html=1;fontSize=12;glass=0;strokeWidth=1;shadow=0;" parent="fV304MDlqGUUFp1leCkt-43" vertex="1">
          <mxGeometry x="50" y="190" width="200" height="70" as="geometry" />
        </mxCell>
        <mxCell id="fV304MDlqGUUFp1leCkt-45" style="edgeStyle=orthogonalEdgeStyle;rounded=0;orthogonalLoop=1;jettySize=auto;html=1;entryX=0.5;entryY=0;entryDx=0;entryDy=0;fontColor=#FFFFFF;" parent="fV304MDlqGUUFp1leCkt-43" source="fV304MDlqGUUFp1leCkt-46" target="fV304MDlqGUUFp1leCkt-51" edge="1">
          <mxGeometry relative="1" as="geometry" />
        </mxCell>
        <mxCell id="fV304MDlqGUUFp1leCkt-48" style="edgeStyle=orthogonalEdgeStyle;rounded=0;orthogonalLoop=1;jettySize=auto;html=1;entryX=1;entryY=0.5;entryDx=0;entryDy=0;" parent="fV304MDlqGUUFp1leCkt-43" source="fV304MDlqGUUFp1leCkt-49" target="fV304MDlqGUUFp1leCkt-51" edge="1">
          <mxGeometry relative="1" as="geometry">
            <Array as="points">
              <mxPoint x="600" y="225" />
            </Array>
          </mxGeometry>
        </mxCell>
        <mxCell id="fV304MDlqGUUFp1leCkt-52" value="&lt;font color=&quot;#000000&quot;&gt;Tidak&lt;/font&gt;" style="text;html=1;strokeColor=none;fillColor=none;align=center;verticalAlign=middle;whiteSpace=wrap;rounded=0;fontColor=#FFFFFF;" parent="fV304MDlqGUUFp1leCkt-43" vertex="1">
          <mxGeometry x="620" y="760" width="20" height="20" as="geometry" />
        </mxCell>
        <mxCell id="fV304MDlqGUUFp1leCkt-54" value="Invoice termasuk QRIS&lt;br&gt;untuk pembayaran" style="shape=parallelogram;perimeter=parallelogramPerimeter;whiteSpace=wrap;html=1;fixedSize=1;strokeWidth=1;fillColor=#fff2cc;strokeColor=#d6b656;" parent="fV304MDlqGUUFp1leCkt-43" vertex="1">
          <mxGeometry x="55" y="305" width="190" height="70" as="geometry" />
        </mxCell>
        <mxCell id="fV304MDlqGUUFp1leCkt-50" value="" style="edgeStyle=orthogonalEdgeStyle;rounded=0;orthogonalLoop=1;jettySize=auto;html=1;" parent="fV304MDlqGUUFp1leCkt-43" source="fV304MDlqGUUFp1leCkt-51" target="fV304MDlqGUUFp1leCkt-54" edge="1">
          <mxGeometry relative="1" as="geometry" />
        </mxCell>
        <mxCell id="fV304MDlqGUUFp1leCkt-57" value="pembayaran&lt;br&gt;berhasil?" style="rhombus;whiteSpace=wrap;html=1;strokeWidth=1;fillColor=#dae8fc;strokeColor=#6c8ebf;" parent="fV304MDlqGUUFp1leCkt-43" vertex="1">
          <mxGeometry x="90" y="630" width="120" height="110" as="geometry" />
        </mxCell>
        <mxCell id="fV304MDlqGUUFp1leCkt-58" value="&lt;font color=&quot;#000000&quot;&gt;Tidak&lt;/font&gt;" style="text;html=1;strokeColor=none;fillColor=none;align=center;verticalAlign=middle;whiteSpace=wrap;rounded=0;fontColor=#FFFFFF;" parent="fV304MDlqGUUFp1leCkt-43" vertex="1">
          <mxGeometry x="230" y="660" width="20" height="20" as="geometry" />
        </mxCell>
        <mxCell id="fV304MDlqGUUFp1leCkt-59" value="&lt;font color=&quot;#000000&quot;&gt;Ya&lt;/font&gt;" style="text;html=1;strokeColor=none;fillColor=none;align=center;verticalAlign=middle;whiteSpace=wrap;rounded=0;fontColor=#FFFFFF;" parent="fV304MDlqGUUFp1leCkt-43" vertex="1">
          <mxGeometry x="115" y="760" width="20" height="20" as="geometry" />
        </mxCell>
        <mxCell id="fV304MDlqGUUFp1leCkt-61" value="Client mengscan QRIS untuk&lt;br&gt;membayar" style="rounded=1;whiteSpace=wrap;html=1;fontSize=12;glass=0;strokeWidth=1;shadow=0;" parent="fV304MDlqGUUFp1leCkt-43" vertex="1">
          <mxGeometry x="50" y="420" width="200" height="70" as="geometry" />
        </mxCell>
        <mxCell id="fV304MDlqGUUFp1leCkt-53" value="" style="edgeStyle=orthogonalEdgeStyle;rounded=0;orthogonalLoop=1;jettySize=auto;html=1;" parent="fV304MDlqGUUFp1leCkt-43" source="fV304MDlqGUUFp1leCkt-54" target="fV304MDlqGUUFp1leCkt-61" edge="1">
          <mxGeometry relative="1" as="geometry" />
        </mxCell>
        <mxCell id="fV304MDlqGUUFp1leCkt-62" value="" style="edgeStyle=orthogonalEdgeStyle;rounded=0;orthogonalLoop=1;jettySize=auto;html=1;" parent="fV304MDlqGUUFp1leCkt-43" source="fV304MDlqGUUFp1leCkt-63" target="fV304MDlqGUUFp1leCkt-44" edge="1">
          <mxGeometry relative="1" as="geometry" />
        </mxCell>
        <mxCell id="fV304MDlqGUUFp1leCkt-63" value="informasi pembayaran&lt;br&gt;berhasil" style="shape=parallelogram;perimeter=parallelogramPerimeter;whiteSpace=wrap;html=1;fixedSize=1;strokeWidth=1;fillColor=#fff2cc;strokeColor=#d6b656;" parent="fV304MDlqGUUFp1leCkt-43" vertex="1">
          <mxGeometry x="55" y="790" width="190" height="70" as="geometry" />
        </mxCell>
        <mxCell id="fV304MDlqGUUFp1leCkt-55" value="" style="edgeStyle=orthogonalEdgeStyle;rounded=0;orthogonalLoop=1;jettySize=auto;html=1;" parent="fV304MDlqGUUFp1leCkt-43" source="fV304MDlqGUUFp1leCkt-57" target="fV304MDlqGUUFp1leCkt-63" edge="1">
          <mxGeometry relative="1" as="geometry" />
        </mxCell>
        <mxCell id="fV304MDlqGUUFp1leCkt-64" value="" style="edgeStyle=orthogonalEdgeStyle;rounded=0;orthogonalLoop=1;jettySize=auto;html=1;" parent="fV304MDlqGUUFp1leCkt-43" source="fV304MDlqGUUFp1leCkt-65" target="fV304MDlqGUUFp1leCkt-49" edge="1">
          <mxGeometry relative="1" as="geometry" />
        </mxCell>
        <mxCell id="fV304MDlqGUUFp1leCkt-65" value="informasi pembayaran&lt;br&gt;gagal" style="shape=parallelogram;perimeter=parallelogramPerimeter;whiteSpace=wrap;html=1;fixedSize=1;strokeWidth=1;fillColor=#fff2cc;strokeColor=#d6b656;" parent="fV304MDlqGUUFp1leCkt-43" vertex="1">
          <mxGeometry x="290" y="650" width="190" height="70" as="geometry" />
        </mxCell>
        <mxCell id="fV304MDlqGUUFp1leCkt-56" value="" style="edgeStyle=orthogonalEdgeStyle;rounded=0;orthogonalLoop=1;jettySize=auto;html=1;" parent="fV304MDlqGUUFp1leCkt-43" source="fV304MDlqGUUFp1leCkt-57" target="fV304MDlqGUUFp1leCkt-65" edge="1">
          <mxGeometry relative="1" as="geometry" />
        </mxCell>
        <mxCell id="fV304MDlqGUUFp1leCkt-66" value="&lt;font color=&quot;#000000&quot;&gt;Ya&lt;/font&gt;" style="text;html=1;strokeColor=none;fillColor=none;align=center;verticalAlign=middle;whiteSpace=wrap;rounded=0;fontColor=#FFFFFF;" parent="fV304MDlqGUUFp1leCkt-43" vertex="1">
          <mxGeometry x="620" y="600" width="20" height="20" as="geometry" />
        </mxCell>
        <mxCell id="fV304MDlqGUUFp1leCkt-67" value="" style="edgeStyle=orthogonalEdgeStyle;rounded=0;orthogonalLoop=1;jettySize=auto;html=1;" parent="fV304MDlqGUUFp1leCkt-43" source="fV304MDlqGUUFp1leCkt-68" target="fV304MDlqGUUFp1leCkt-57" edge="1">
          <mxGeometry relative="1" as="geometry" />
        </mxCell>
        <mxCell id="fV304MDlqGUUFp1leCkt-68" value="halaman menunggu hasil" style="shape=parallelogram;perimeter=parallelogramPerimeter;whiteSpace=wrap;html=1;fixedSize=1;strokeWidth=1;fillColor=#fff2cc;strokeColor=#d6b656;" parent="fV304MDlqGUUFp1leCkt-43" vertex="1">
          <mxGeometry x="55" y="530" width="190" height="70" as="geometry" />
        </mxCell>
        <mxCell id="fV304MDlqGUUFp1leCkt-60" value="" style="edgeStyle=orthogonalEdgeStyle;rounded=0;orthogonalLoop=1;jettySize=auto;html=1;" parent="fV304MDlqGUUFp1leCkt-43" source="fV304MDlqGUUFp1leCkt-61" target="fV304MDlqGUUFp1leCkt-68" edge="1">
          <mxGeometry relative="1" as="geometry" />
        </mxCell>
        <mxCell id="jU2oBUWaEpsZDGjDXb5C-12" value="client_membatalkan_latihan" style="swimlane;whiteSpace=wrap;html=1;" parent="1" vertex="1">
          <mxGeometry x="910" y="1160" width="270" height="720" as="geometry" />
        </mxCell>
        <mxCell id="jU2oBUWaEpsZDGjDXb5C-1" value="End" style="ellipse;whiteSpace=wrap;html=1;aspect=fixed;fillColor=#f8cecc;strokeColor=#b85450;fontStyle=1;strokeWidth=2;" parent="jU2oBUWaEpsZDGjDXb5C-12" vertex="1">
          <mxGeometry x="97.5" y="600" width="70" height="70" as="geometry" />
        </mxCell>
        <mxCell id="jU2oBUWaEpsZDGjDXb5C-2" value="" style="edgeStyle=orthogonalEdgeStyle;rounded=0;orthogonalLoop=1;jettySize=auto;html=1;" parent="jU2oBUWaEpsZDGjDXb5C-12" target="jU2oBUWaEpsZDGjDXb5C-6" edge="1">
          <mxGeometry relative="1" as="geometry">
            <mxPoint x="132.5" y="140" as="sourcePoint" />
          </mxGeometry>
        </mxCell>
        <mxCell id="jU2oBUWaEpsZDGjDXb5C-4" value="tekan tombol &quot;batal&quot;" style="shape=parallelogram;perimeter=parallelogramPerimeter;whiteSpace=wrap;html=1;fixedSize=1;strokeWidth=1;fillColor=#fff2cc;strokeColor=#d6b656;" parent="jU2oBUWaEpsZDGjDXb5C-12" vertex="1">
          <mxGeometry x="40" y="300" width="185" height="50" as="geometry" />
        </mxCell>
        <mxCell id="jU2oBUWaEpsZDGjDXb5C-5" value="" style="edgeStyle=orthogonalEdgeStyle;rounded=0;orthogonalLoop=1;jettySize=auto;html=1;entryX=0.5;entryY=0;entryDx=0;entryDy=0;" parent="jU2oBUWaEpsZDGjDXb5C-12" source="jU2oBUWaEpsZDGjDXb5C-6" target="jU2oBUWaEpsZDGjDXb5C-4" edge="1">
          <mxGeometry relative="1" as="geometry">
            <mxPoint x="132.5" y="270" as="targetPoint" />
          </mxGeometry>
        </mxCell>
        <mxCell id="jU2oBUWaEpsZDGjDXb5C-6" value="client membuka jadwal&lt;br&gt;yang ingin dibatalkan" style="rounded=1;whiteSpace=wrap;html=1;fontSize=12;glass=0;strokeWidth=1;shadow=0;" parent="jU2oBUWaEpsZDGjDXb5C-12" vertex="1">
          <mxGeometry x="60" y="180" width="145" height="70" as="geometry" />
        </mxCell>
        <mxCell id="jU2oBUWaEpsZDGjDXb5C-7" value="client melihat jadwal" style="ellipse;whiteSpace=wrap;html=1;fillColor=#d5e8d4;strokeColor=#82b366;strokeWidth=2;" parent="jU2oBUWaEpsZDGjDXb5C-12" vertex="1">
          <mxGeometry x="72.5" y="60" width="120" height="80" as="geometry" />
        </mxCell>
        <mxCell id="jU2oBUWaEpsZDGjDXb5C-9" value="modal untuk input alasan" style="shape=parallelogram;perimeter=parallelogramPerimeter;whiteSpace=wrap;html=1;fixedSize=1;strokeWidth=1;fillColor=#fff2cc;strokeColor=#d6b656;" parent="jU2oBUWaEpsZDGjDXb5C-12" vertex="1">
          <mxGeometry x="40" y="400" width="185" height="50" as="geometry" />
        </mxCell>
        <mxCell id="jU2oBUWaEpsZDGjDXb5C-3" value="" style="edgeStyle=orthogonalEdgeStyle;rounded=0;orthogonalLoop=1;jettySize=auto;html=1;" parent="jU2oBUWaEpsZDGjDXb5C-12" source="jU2oBUWaEpsZDGjDXb5C-4" target="jU2oBUWaEpsZDGjDXb5C-9" edge="1">
          <mxGeometry relative="1" as="geometry" />
        </mxCell>
        <mxCell id="jU2oBUWaEpsZDGjDXb5C-10" value="" style="edgeStyle=orthogonalEdgeStyle;rounded=0;orthogonalLoop=1;jettySize=auto;html=1;" parent="jU2oBUWaEpsZDGjDXb5C-12" source="jU2oBUWaEpsZDGjDXb5C-11" target="jU2oBUWaEpsZDGjDXb5C-1" edge="1">
          <mxGeometry relative="1" as="geometry" />
        </mxCell>
        <mxCell id="jU2oBUWaEpsZDGjDXb5C-11" value="pemberitahuan aksi dan&lt;br&gt;respon servernya" style="shape=parallelogram;perimeter=parallelogramPerimeter;whiteSpace=wrap;html=1;fixedSize=1;strokeWidth=1;fillColor=#fff2cc;strokeColor=#d6b656;" parent="jU2oBUWaEpsZDGjDXb5C-12" vertex="1">
          <mxGeometry x="40" y="505" width="185" height="50" as="geometry" />
        </mxCell>
        <mxCell id="jU2oBUWaEpsZDGjDXb5C-8" value="" style="edgeStyle=orthogonalEdgeStyle;rounded=0;orthogonalLoop=1;jettySize=auto;html=1;" parent="jU2oBUWaEpsZDGjDXb5C-12" source="jU2oBUWaEpsZDGjDXb5C-9" target="jU2oBUWaEpsZDGjDXb5C-11" edge="1">
          <mxGeometry relative="1" as="geometry" />
        </mxCell>
      </root>
    </mxGraphModel>
  </diagram>
</mxfile>
